<?xml version="1.0" encoding="utf-8"?>
<!-- Generator: Adobe Illustrator 23.0.2, SVG Export Plug-In . SVG Version: 6.00 Build 0)  -->
<svg version="1.1" id="Calque_1" xmlns="http://www.w3.org/2000/svg" xmlns:xlink="http://www.w3.org/1999/xlink" x="0px" y="0px"
	 viewBox="0 0 277 60" style="enable-background:new 0 0 277 60;" xml:space="preserve">
<style type="text/css">
	.st0{fill:#F4F4F4;}
</style>
<path class="st0" d="M125.6,23v-3.2h3V23H125.6z M125.6,41.4V25.2h3v16.2H125.6z"/>
<path class="st0" d="M120.9,41.4v-7.6c0-0.5,0-1-0.1-1.6c-0.1-0.6-0.2-1.2-0.5-1.7c-0.2-0.6-0.6-1-1.1-1.4c-0.5-0.4-1.1-0.5-2-0.5
	c-0.4,0-0.9,0.1-1.3,0.2c-0.4,0.1-0.8,0.4-1.2,0.8c-0.3,0.4-0.6,0.8-0.8,1.5c-0.2,0.6-0.3,1.4-0.3,2.4l-2.1-0.9
	c0-1.3,0.3-2.6,0.8-3.6c0.5-1.1,1.3-2,2.3-2.6c1-0.7,2.2-1,3.7-1c1.2,0,2.1,0.2,2.9,0.6c0.8,0.4,1.4,0.9,1.8,1.5
	c0.4,0.6,0.8,1.2,1,1.9c0.2,0.7,0.3,1.3,0.4,1.9c0.1,0.6,0.1,1.1,0.1,1.5v8.8H120.9z M110.1,41.4V25.2h3.1v5.3h0.4v10.9H110.1z"/>
<path class="st0" d="M100.5,41.4V25.3h3.1v3.9l-0.4-0.5c0.2-0.5,0.5-1,0.8-1.5c0.3-0.4,0.7-0.8,1.2-1.1c0.4-0.3,0.8-0.5,1.3-0.6
	c0.5-0.2,1-0.3,1.5-0.3c0.5,0,1,0,1.5,0.1v3.4c-0.5-0.1-1-0.2-1.6-0.1c-0.6,0-1.2,0.2-1.7,0.5c-0.5,0.3-0.9,0.6-1.2,1
	c-0.3,0.4-0.5,0.9-0.7,1.4c-0.1,0.5-0.2,1.1-0.2,1.7v8.2H100.5z"/>
<path class="st0" d="M144.8,41.4V25.3h3.1v3.9l-0.4-0.5c0.2-0.5,0.5-1,0.8-1.5c0.3-0.4,0.7-0.8,1.2-1.1c0.4-0.3,0.8-0.5,1.3-0.6
	c0.5-0.2,1-0.3,1.5-0.3c0.5,0,1,0,1.5,0.1v3.4c-0.5-0.1-1-0.2-1.6-0.1c-0.6,0-1.2,0.2-1.7,0.5c-0.5,0.3-0.9,0.6-1.2,1
	c-0.3,0.4-0.5,0.9-0.7,1.4c-0.1,0.5-0.2,1.1-0.2,1.7v8.2H144.8z"/>
<path class="st0" d="M93.1,41.4c-1.5,0-2.8-0.3-4-1s-2-1.6-2.7-2.8c-0.6-1.2-1-2.6-1-4.1c0-1.7,0.3-3.1,0.9-4.4
	c0.6-1.2,1.5-2.2,2.6-2.9c1.1-0.7,2.4-1,3.9-1c1.5,0,2.9,0.4,3.9,1.1c1.1,0.7,1.9,1.8,2.4,3.1c0.5,1.4,0.7,3,0.6,4.8h-3.3V33
	c0-1.7-0.3-2.9-0.9-3.7c-0.6-0.8-1.4-1.2-2.6-1.2c-1.4,0-2.4,0.4-3,1.3c-0.7,0.9-1,2.1-1,3.8c0,1.6,0.3,2.8,1,3.6
	c0.7,0.9,1.6,1.3,2.9,1.3c0.8,0,1.5-0.2,2.1-0.6c0.6-0.4,1.1-0.9,1.4-1.6l3.3,1c-0.6,1.4-1.5,2.5-2.6,3.2
	C95.9,41,94.6,41.4,93.1,41.4z M88,34.3v-2.6h10.2v2.6H88z"/>
<path class="st0" d="M137.4,41.4c-1.5,0-2.8-0.3-4-1c-1.1-0.7-2-1.6-2.7-2.8c-0.6-1.2-0.9-2.6-0.9-4.1c0-1.7,0.3-3.1,0.9-4.4
	c0.6-1.2,1.5-2.2,2.6-2.9c1.1-0.7,2.4-1,3.9-1c1.5,0,2.9,0.4,3.9,1.1c1.1,0.7,1.9,1.8,2.4,3.1c0.5,1.4,0.7,3,0.6,4.8h-3.3V33
	c0-1.7-0.3-2.9-0.9-3.7c-0.6-0.8-1.4-1.2-2.6-1.2c-1.4,0-2.4,0.4-3,1.3c-0.7,0.9-1,2.1-1,3.8c0,1.6,0.3,2.8,1,3.6
	c0.7,0.9,1.6,1.3,2.9,1.3c0.8,0,1.5-0.2,2.1-0.6c0.6-0.4,1.1-0.9,1.4-1.6l3.3,1c-0.6,1.4-1.4,2.5-2.6,3.2
	C140.2,41,138.8,41.4,137.4,41.4z M132.3,34.3v-2.6h10.2v2.6H132.3z"/>
<path class="st0" d="M161.3,41.4c-1.5,0-2.8-0.3-4-1c-1.1-0.7-2-1.6-2.7-2.8c-0.6-1.2-0.9-2.6-0.9-4.1c0-1.7,0.3-3.1,0.9-4.4
	c0.6-1.2,1.5-2.2,2.6-2.9c1.1-0.7,2.4-1,3.9-1c1.5,0,2.9,0.4,3.9,1.1c1.1,0.7,1.9,1.8,2.4,3.1c0.5,1.4,0.7,3,0.6,4.8h-3.3V33
	c0-1.7-0.3-2.9-0.9-3.7c-0.6-0.8-1.4-1.2-2.6-1.2c-1.4,0-2.4,0.4-3,1.3c-0.7,0.9-1,2.1-1,3.8c0,1.6,0.3,2.8,1,3.6
	c0.7,0.9,1.6,1.3,2.9,1.3c0.8,0,1.5-0.2,2.1-0.6c0.6-0.4,1.1-0.9,1.4-1.6l3.3,1c-0.6,1.4-1.4,2.5-2.6,3.2
	C164.1,41,162.8,41.4,161.3,41.4z M156.2,34.3v-2.6h10.2v2.6H156.2z"/>
<path class="st0" d="M65.8,41.4v-24h7.5c0.2,0,0.6,0,1.2,0c0.6,0,1.2,0.1,1.7,0.1c1.9,0.2,3.5,0.9,4.8,2c1.3,1.1,2.3,2.5,3,4.2
	c0.7,1.7,1,3.6,1,5.6s-0.3,3.9-1,5.6c-0.7,1.7-1.7,3.1-3,4.2c-1.3,1.1-2.9,1.8-4.8,2c-0.5,0.1-1.1,0.1-1.7,0.1c-0.6,0-1,0-1.2,0
	H65.8z M69.8,37.6h3.5c0.3,0,0.7,0,1.3,0c0.5,0,1-0.1,1.4-0.1c1.1-0.2,2-0.7,2.7-1.5c0.7-0.8,1.2-1.8,1.5-2.9
	c0.3-1.1,0.5-2.3,0.5-3.6c0-1.3-0.2-2.5-0.5-3.7c-0.3-1.1-0.9-2.1-1.6-2.9c-0.7-0.8-1.6-1.3-2.7-1.5c-0.4-0.1-0.8-0.1-1.4-0.1
	c-0.5,0-0.9,0-1.3,0h-3.5V37.6z"/>
<path class="st0" d="M133.8,22.2h6.4v-2.4h-6.4V22.2z"/>
<path class="st0" d="M241.7,41.4V25.3h3.1v3.9l-0.4-0.5c0.2-0.5,0.5-1,0.8-1.5c0.3-0.4,0.7-0.8,1.2-1.1c0.4-0.3,0.8-0.5,1.3-0.6
	c0.5-0.2,1-0.3,1.5-0.3c0.5,0,1,0,1.5,0.1v3.4c-0.5-0.1-1-0.2-1.6-0.1c-0.6,0-1.2,0.2-1.7,0.5c-0.5,0.3-0.9,0.6-1.2,1
	c-0.3,0.4-0.5,0.9-0.7,1.4c-0.1,0.5-0.2,1.1-0.2,1.7v8.2H241.7z"/>
<path class="st0" d="M270.2,41.4c-1.5,0-2.8-0.3-4-1c-1.1-0.7-2-1.6-2.7-2.8c-0.6-1.2-1-2.6-1-4.1c0-1.7,0.3-3.1,0.9-4.4
	c0.6-1.2,1.5-2.2,2.6-2.9c1.1-0.7,2.4-1,3.9-1c1.5,0,2.8,0.4,3.9,1.1c1.1,0.7,1.9,1.8,2.4,3.1s0.7,3,0.6,4.8h-3.3V33
	c0-1.7-0.3-2.9-0.9-3.7c-0.6-0.8-1.4-1.2-2.6-1.2c-1.4,0-2.4,0.4-3,1.3c-0.7,0.9-1,2.1-1,3.8c0,1.6,0.3,2.8,1,3.6
	c0.7,0.9,1.6,1.3,2.9,1.3c0.8,0,1.5-0.2,2.1-0.6c0.6-0.4,1.1-0.9,1.4-1.6l3.3,1c-0.6,1.4-1.5,2.5-2.6,3.2
	C273,41,271.7,41.4,270.2,41.4z M265.1,34.3v-2.6h10.2v2.6H265.1z"/>
<path class="st0" d="M262.4,41.1c-1.1,0.2-2.1,0.3-3.1,0.3c-1,0-1.9-0.2-2.7-0.6c-0.8-0.4-1.4-0.9-1.8-1.7c-0.4-0.7-0.6-1.4-0.6-2.1
	s0-1.5,0-2.5v-14h3.6v13.8c0,0.6,0,1.2,0,1.7c0,0.5,0.1,0.9,0.3,1.2c0.4,0.6,0.9,0.9,1.7,1c0.8,0.1,1.7,0,2.7-0.1V41.1z M251.3,27.9
	v-2.7h11.2v2.7H251.3z"/>
<path class="st0" d="M181.9,41.4c-2.3,0-4.2-0.5-5.8-1.5c-1.6-1-2.8-2.4-3.7-4.2c-0.9-1.8-1.3-3.9-1.3-6.3s0.4-4.5,1.3-6.3
	c0.9-1.8,2.1-3.2,3.7-4.2c1.6-1,3.5-1.5,5.8-1.5c2.6,0,4.8,0.7,6.5,2c1.7,1.3,2.9,3.1,3.6,5.4l-3.8,1.1c-0.4-1.5-1.2-2.7-2.2-3.5
	c-1.1-0.9-2.4-1.3-4.1-1.3c-1.5,0-2.8,0.3-3.8,1c-1,0.7-1.8,1.7-2.3,2.9c-0.5,1.2-0.8,2.7-0.8,4.4c0,1.7,0.3,3.2,0.8,4.4
	c0.5,1.2,1.3,2.2,2.3,2.9c1,0.7,2.3,1,3.8,1c1.7,0,3-0.4,4.1-1.3c1.1-0.9,1.8-2,2.2-3.5L192,34c-0.7,2.3-1.9,4-3.6,5.4
	C186.7,40.7,184.5,41.4,181.9,41.4z"/>
<path class="st0" d="M200.7,41.4c-1.6,0-3-0.3-4.2-1c-1.2-0.7-2.2-1.6-2.8-2.9c-0.7-1.2-1-2.6-1-4.2c0-1.6,0.3-3,1-4.2
	c0.7-1.2,1.6-2.2,2.8-2.8c1.2-0.7,2.6-1,4.2-1c1.6,0,3.1,0.3,4.3,1c1.2,0.7,2.2,1.6,2.8,2.9c0.7,1.2,1,2.6,1,4.2c0,1.6-0.3,3-1,4.2
	c-0.7,1.2-1.6,2.2-2.8,2.9C203.7,41.1,202.3,41.4,200.7,41.4z M200.7,38.2c1.4,0,2.5-0.5,3.2-1.4c0.7-0.9,1.1-2.1,1.1-3.5
	c0-1.5-0.4-2.7-1.1-3.6c-0.7-0.9-1.8-1.3-3.2-1.3c-1,0-1.8,0.2-2.4,0.6c-0.6,0.4-1.1,1-1.4,1.7c-0.3,0.7-0.4,1.6-0.4,2.5
	c0,1.5,0.4,2.7,1.1,3.6C198.3,37.7,199.3,38.2,200.7,38.2z"/>
<path class="st0" d="M233,41.4c-1.6,0-3-0.3-4.2-1c-1.2-0.7-2.2-1.6-2.8-2.9c-0.7-1.2-1-2.6-1-4.2c0-1.6,0.3-3,1-4.2
	c0.7-1.2,1.6-2.2,2.8-2.8c1.2-0.7,2.6-1,4.2-1c1.6,0,3.1,0.3,4.3,1c1.2,0.7,2.2,1.6,2.8,2.9c0.7,1.2,1,2.6,1,4.2c0,1.6-0.3,3-1,4.2
	c-0.7,1.2-1.6,2.2-2.8,2.9C236,41.1,234.6,41.4,233,41.4z M233,38.2c1.4,0,2.5-0.5,3.2-1.4c0.7-0.9,1.1-2.1,1.1-3.5
	c0-1.5-0.4-2.7-1.1-3.6c-0.7-0.9-1.8-1.3-3.2-1.3c-1,0-1.8,0.2-2.4,0.6c-0.6,0.4-1.1,1-1.4,1.7c-0.3,0.7-0.4,1.6-0.4,2.5
	c0,1.5,0.4,2.7,1.1,3.6C230.6,37.7,231.6,38.2,233,38.2z"/>
<path class="st0" d="M224.3,31.6c-0.1-0.6-0.2-1.4-0.4-2.1c-0.2-0.7-0.6-1.4-1-2c-0.5-0.6-1.1-1.2-1.9-1.6s-1.8-0.6-3-0.6
	c-1.5,0-3.5,0-4.6,1.6v-9.6h-3.9v24h3.9V31.1c0.8-1.3,1.6-1.7,2.2-2c0.5-0.2,0.9-0.2,1.3-0.2c0.9,0,1.6,0.2,2,0.6
	c0.5,0.4,0.9,0.9,1.1,1.4c0.2,0.6,0.4,1.2,0.5,1.8c0.1,0.6,0.1,1.2,0.1,1.8v7h3.8v-8.2C224.4,32.8,224.4,32.3,224.3,31.6z"/>
<path class="st0" d="M38.7,32.3l1.1-3.8l19.9,0.1l-1.1,3.8L38.7,32.3z"/>
<path class="st0" d="M38.7,32.3l-1.1,3.8l16.6,11.5l1.1-3.8L38.7,32.3z"/>
<path class="st0" d="M35.8,22l-3.2-2.2L38.4,0l3.1,2.1L35.8,22z"/>
<path class="st0" d="M35.8,22l3.1,2.2L54.3,11l-3.2-2.2L35.8,22z"/>
<path class="st0" d="M23.7,22l3.2-2.1L21.2,0L18,2.1L23.7,22z"/>
<path class="st0" d="M23.7,22l-3.1,2.2L5.2,10.9l3.2-2.1L23.7,22z"/>
<path class="st0" d="M21,32.5l1.1,3.8L5.3,47.5l-1.1-3.8L21,32.5z"/>
<path class="st0" d="M21,32.5l-1.1-3.8L0,28.4l1.1,3.8L21,32.5z"/>
<path class="st0" d="M29.9,40.1h3.8L39.4,60h-3.8L29.9,40.1z"/>
<path class="st0" d="M29.9,40.1h-3.8L20.3,60h3.8L29.9,40.1z"/>
<path class="st0" d="M125.6,23v-3.2h3V23H125.6z M125.6,41.4V25.2h3v16.2H125.6z"/>
<path class="st0" d="M120.9,41.4v-7.6c0-0.5,0-1-0.1-1.6c-0.1-0.6-0.2-1.2-0.5-1.7c-0.2-0.6-0.6-1-1.1-1.4c-0.5-0.4-1.1-0.5-2-0.5
	c-0.4,0-0.9,0.1-1.3,0.2c-0.4,0.1-0.8,0.4-1.2,0.8c-0.3,0.4-0.6,0.8-0.8,1.5c-0.2,0.6-0.3,1.4-0.3,2.4l-2.1-0.9
	c0-1.3,0.3-2.6,0.8-3.6c0.5-1.1,1.3-2,2.3-2.6c1-0.7,2.2-1,3.7-1c1.2,0,2.1,0.2,2.9,0.6c0.8,0.4,1.4,0.9,1.8,1.5
	c0.4,0.6,0.8,1.2,1,1.9c0.2,0.7,0.3,1.3,0.4,1.9c0.1,0.6,0.1,1.1,0.1,1.5v8.8H120.9z M110.1,41.4V25.2h3.1v5.3h0.4v10.9H110.1z"/>
<path class="st0" d="M100.5,41.4V25.3h3.1v3.9l-0.4-0.5c0.2-0.5,0.5-1,0.8-1.5c0.3-0.4,0.7-0.8,1.2-1.1c0.4-0.3,0.8-0.5,1.3-0.6
	c0.5-0.2,1-0.3,1.5-0.3c0.5,0,1,0,1.5,0.1v3.4c-0.5-0.1-1-0.2-1.6-0.1c-0.6,0-1.2,0.2-1.7,0.5c-0.5,0.3-0.9,0.6-1.2,1
	c-0.3,0.4-0.5,0.9-0.7,1.4c-0.1,0.5-0.2,1.1-0.2,1.7v8.2H100.5z"/>
<path class="st0" d="M144.8,41.4V25.3h3.1v3.9l-0.4-0.5c0.2-0.5,0.5-1,0.8-1.5c0.3-0.4,0.7-0.8,1.2-1.1c0.4-0.3,0.8-0.5,1.3-0.6
	c0.5-0.2,1-0.3,1.5-0.3c0.5,0,1,0,1.5,0.1v3.4c-0.5-0.1-1-0.2-1.6-0.1c-0.6,0-1.2,0.2-1.7,0.5c-0.5,0.3-0.9,0.6-1.2,1
	c-0.3,0.4-0.5,0.9-0.7,1.4c-0.1,0.5-0.2,1.1-0.2,1.7v8.2H144.8z"/>
<path class="st0" d="M93.1,41.4c-1.5,0-2.8-0.3-4-1s-2-1.6-2.7-2.8c-0.6-1.2-1-2.6-1-4.1c0-1.7,0.3-3.1,0.9-4.4
	c0.6-1.2,1.5-2.2,2.6-2.9c1.1-0.7,2.4-1,3.9-1c1.5,0,2.9,0.4,3.9,1.1c1.1,0.7,1.9,1.8,2.4,3.1c0.5,1.4,0.7,3,0.6,4.8h-3.3V33
	c0-1.7-0.3-2.9-0.9-3.7c-0.6-0.8-1.4-1.2-2.6-1.2c-1.4,0-2.4,0.4-3,1.3c-0.7,0.9-1,2.1-1,3.8c0,1.6,0.3,2.8,1,3.6
	c0.7,0.9,1.6,1.3,2.9,1.3c0.8,0,1.5-0.2,2.1-0.6c0.6-0.4,1.1-0.9,1.4-1.6l3.3,1c-0.6,1.4-1.5,2.5-2.6,3.2
	C95.9,41,94.6,41.4,93.1,41.4z M88,34.3v-2.6h10.2v2.6H88z"/>
<path class="st0" d="M137.4,41.4c-1.5,0-2.8-0.3-4-1c-1.1-0.7-2-1.6-2.7-2.8c-0.6-1.2-0.9-2.6-0.9-4.1c0-1.7,0.3-3.1,0.9-4.4
	c0.6-1.2,1.5-2.2,2.6-2.9c1.1-0.7,2.4-1,3.9-1c1.5,0,2.9,0.4,3.9,1.1c1.1,0.7,1.9,1.8,2.4,3.1c0.5,1.4,0.7,3,0.6,4.8h-3.3V33
	c0-1.7-0.3-2.9-0.9-3.7c-0.6-0.8-1.4-1.2-2.6-1.2c-1.4,0-2.4,0.4-3,1.3c-0.7,0.9-1,2.1-1,3.8c0,1.6,0.3,2.8,1,3.6
	c0.7,0.9,1.6,1.3,2.9,1.3c0.8,0,1.5-0.2,2.1-0.6c0.6-0.4,1.1-0.9,1.4-1.6l3.3,1c-0.6,1.4-1.4,2.5-2.6,3.2
	C140.2,41,138.8,41.4,137.4,41.4z M132.3,34.3v-2.6h10.2v2.6H132.3z"/>
<path class="st0" d="M161.3,41.4c-1.5,0-2.8-0.3-4-1c-1.1-0.7-2-1.6-2.7-2.8c-0.6-1.2-0.9-2.6-0.9-4.1c0-1.7,0.3-3.1,0.9-4.4
	c0.6-1.2,1.5-2.2,2.6-2.9c1.1-0.7,2.4-1,3.9-1c1.5,0,2.9,0.4,3.9,1.1c1.1,0.7,1.9,1.8,2.4,3.1c0.5,1.4,0.7,3,0.6,4.8h-3.3V33
	c0-1.7-0.3-2.9-0.9-3.7c-0.6-0.8-1.4-1.2-2.6-1.2c-1.4,0-2.4,0.4-3,1.3c-0.7,0.9-1,2.1-1,3.8c0,1.6,0.3,2.8,1,3.6
	c0.7,0.9,1.6,1.3,2.9,1.3c0.8,0,1.5-0.2,2.1-0.6c0.6-0.4,1.1-0.9,1.4-1.6l3.3,1c-0.6,1.4-1.4,2.5-2.6,3.2
	C164.1,41,162.8,41.4,161.3,41.4z M156.2,34.3v-2.6h10.2v2.6H156.2z"/>
<path class="st0" d="M65.8,41.4v-24h7.5c0.2,0,0.6,0,1.2,0c0.6,0,1.2,0.1,1.7,0.1c1.9,0.2,3.5,0.9,4.8,2c1.3,1.1,2.3,2.5,3,4.2
	c0.7,1.7,1,3.6,1,5.6s-0.3,3.9-1,5.6c-0.7,1.7-1.7,3.1-3,4.2c-1.3,1.1-2.9,1.8-4.8,2c-0.5,0.1-1.1,0.1-1.7,0.1c-0.6,0-1,0-1.2,0
	H65.8z M69.8,37.6h3.5c0.3,0,0.7,0,1.3,0c0.5,0,1-0.1,1.4-0.1c1.1-0.2,2-0.7,2.7-1.5c0.7-0.8,1.2-1.8,1.5-2.9
	c0.3-1.1,0.5-2.3,0.5-3.6c0-1.3-0.2-2.5-0.5-3.7c-0.3-1.1-0.9-2.1-1.6-2.9c-0.7-0.8-1.6-1.3-2.7-1.5c-0.4-0.1-0.8-0.1-1.4-0.1
	c-0.5,0-0.9,0-1.3,0h-3.5V37.6z"/>
<path class="st0" d="M133.8,22.2h6.4v-2.4h-6.4V22.2z"/>
<path class="st0" d="M241.7,41.4V25.3h3.1v3.9l-0.4-0.5c0.2-0.5,0.5-1,0.8-1.5c0.3-0.4,0.7-0.8,1.2-1.1c0.4-0.3,0.8-0.5,1.3-0.6
	c0.5-0.2,1-0.3,1.5-0.3c0.5,0,1,0,1.5,0.1v3.4c-0.5-0.1-1-0.2-1.6-0.1c-0.6,0-1.2,0.2-1.7,0.5c-0.5,0.3-0.9,0.6-1.2,1
	c-0.3,0.4-0.5,0.9-0.7,1.4c-0.1,0.5-0.2,1.1-0.2,1.7v8.2H241.7z"/>
<path class="st0" d="M270.2,41.4c-1.5,0-2.8-0.3-4-1c-1.1-0.7-2-1.6-2.7-2.8c-0.6-1.2-1-2.6-1-4.1c0-1.7,0.3-3.1,0.9-4.4
	c0.6-1.2,1.5-2.2,2.6-2.9c1.1-0.7,2.4-1,3.9-1c1.5,0,2.8,0.4,3.9,1.1c1.1,0.7,1.9,1.8,2.4,3.1s0.7,3,0.6,4.8h-3.3V33
	c0-1.7-0.3-2.9-0.9-3.7c-0.6-0.8-1.4-1.2-2.6-1.2c-1.4,0-2.4,0.4-3,1.3c-0.7,0.9-1,2.1-1,3.8c0,1.6,0.3,2.8,1,3.6
	c0.7,0.9,1.6,1.3,2.9,1.3c0.8,0,1.5-0.2,2.1-0.6c0.6-0.4,1.1-0.9,1.4-1.6l3.3,1c-0.6,1.4-1.5,2.5-2.6,3.2
	C273,41,271.7,41.4,270.2,41.4z M265.1,34.3v-2.6h10.2v2.6H265.1z"/>
<path class="st0" d="M262.4,41.1c-1.1,0.2-2.1,0.3-3.1,0.3c-1,0-1.9-0.2-2.7-0.6c-0.8-0.4-1.4-0.9-1.8-1.7c-0.4-0.7-0.6-1.4-0.6-2.1
	s0-1.5,0-2.5v-14h3.6v13.8c0,0.6,0,1.2,0,1.7c0,0.5,0.1,0.9,0.3,1.2c0.4,0.6,0.9,0.9,1.7,1c0.8,0.1,1.7,0,2.7-0.1V41.1z M251.3,27.9
	v-2.7h11.2v2.7H251.3z"/>
<path class="st0" d="M181.9,41.4c-2.3,0-4.2-0.5-5.8-1.5c-1.6-1-2.8-2.4-3.7-4.2c-0.9-1.8-1.3-3.9-1.3-6.3s0.4-4.5,1.3-6.3
	c0.9-1.8,2.1-3.2,3.7-4.2c1.6-1,3.5-1.5,5.8-1.5c2.6,0,4.8,0.7,6.5,2c1.7,1.3,2.9,3.1,3.6,5.4l-3.8,1.1c-0.4-1.5-1.2-2.7-2.2-3.5
	c-1.1-0.9-2.4-1.3-4.1-1.3c-1.5,0-2.8,0.3-3.8,1c-1,0.7-1.8,1.7-2.3,2.9c-0.5,1.2-0.8,2.7-0.8,4.4c0,1.7,0.3,3.2,0.8,4.4
	c0.5,1.2,1.3,2.2,2.3,2.9c1,0.7,2.3,1,3.8,1c1.7,0,3-0.4,4.1-1.3c1.1-0.9,1.8-2,2.2-3.5L192,34c-0.7,2.3-1.9,4-3.6,5.4
	C186.7,40.7,184.5,41.4,181.9,41.4z"/>
<path class="st0" d="M200.7,41.4c-1.6,0-3-0.3-4.2-1c-1.2-0.7-2.2-1.6-2.8-2.9c-0.7-1.2-1-2.6-1-4.2c0-1.6,0.3-3,1-4.2
	c0.7-1.2,1.6-2.2,2.8-2.8c1.2-0.7,2.6-1,4.2-1c1.6,0,3.1,0.3,4.3,1c1.2,0.7,2.2,1.6,2.8,2.9c0.7,1.2,1,2.6,1,4.2c0,1.6-0.3,3-1,4.2
	c-0.7,1.2-1.6,2.2-2.8,2.9C203.7,41.1,202.3,41.4,200.7,41.4z M200.7,38.2c1.4,0,2.5-0.5,3.2-1.4c0.7-0.9,1.1-2.1,1.1-3.5
	c0-1.5-0.4-2.7-1.1-3.6c-0.7-0.9-1.8-1.3-3.2-1.3c-1,0-1.8,0.2-2.4,0.6c-0.6,0.4-1.1,1-1.4,1.7c-0.3,0.7-0.4,1.6-0.4,2.5
	c0,1.5,0.4,2.7,1.1,3.6C198.3,37.7,199.3,38.2,200.7,38.2z"/>
<path class="st0" d="M233,41.4c-1.6,0-3-0.3-4.2-1c-1.2-0.7-2.2-1.6-2.8-2.9c-0.7-1.2-1-2.6-1-4.2c0-1.6,0.3-3,1-4.2
	c0.7-1.2,1.6-2.2,2.8-2.8c1.2-0.7,2.6-1,4.2-1c1.6,0,3.1,0.3,4.3,1c1.2,0.7,2.2,1.6,2.8,2.9c0.7,1.2,1,2.6,1,4.2c0,1.6-0.3,3-1,4.2
	c-0.7,1.2-1.6,2.2-2.8,2.9C236,41.1,234.6,41.4,233,41.4z M233,38.2c1.4,0,2.5-0.5,3.2-1.4c0.7-0.9,1.1-2.1,1.1-3.5
	c0-1.5-0.4-2.7-1.1-3.6c-0.7-0.9-1.8-1.3-3.2-1.3c-1,0-1.8,0.2-2.4,0.6c-0.6,0.4-1.1,1-1.4,1.7c-0.3,0.7-0.4,1.6-0.4,2.5
	c0,1.5,0.4,2.7,1.1,3.6C230.6,37.7,231.6,38.2,233,38.2z"/>
<path class="st0" d="M224.3,31.6c-0.1-0.6-0.2-1.4-0.4-2.1c-0.2-0.7-0.6-1.4-1-2c-0.5-0.6-1.1-1.2-1.9-1.6s-1.8-0.6-3-0.6
	c-1.5,0-3.5,0-4.6,1.6v-9.6h-3.9v24h3.9V31.1c0.8-1.3,1.6-1.7,2.2-2c0.5-0.2,0.9-0.2,1.3-0.2c0.9,0,1.6,0.2,2,0.6
	c0.5,0.4,0.9,0.9,1.1,1.4c0.2,0.6,0.4,1.2,0.5,1.8c0.1,0.6,0.1,1.2,0.1,1.8v7h3.8v-8.2C224.4,32.8,224.4,32.3,224.3,31.6z"/>
<path class="st0" d="M38.7,32.3l1.1-3.8l19.9,0.1l-1.1,3.8L38.7,32.3z"/>
<path class="st0" d="M38.7,32.3l-1.1,3.8l16.6,11.5l1.1-3.8L38.7,32.3z"/>
<path class="st0" d="M35.8,22l-3.2-2.2L38.4,0l3.1,2.1L35.8,22z"/>
<path class="st0" d="M35.8,22l3.1,2.2L54.3,11l-3.2-2.2L35.8,22z"/>
<path class="st0" d="M23.7,22l3.2-2.1L21.2,0L18,2.1L23.7,22z"/>
<path class="st0" d="M23.7,22l-3.1,2.2L5.2,10.9l3.2-2.1L23.7,22z"/>
<path class="st0" d="M21,32.5l1.1,3.8L5.3,47.5l-1.1-3.8L21,32.5z"/>
<path class="st0" d="M21,32.5l-1.1-3.8L0,28.4l1.1,3.8L21,32.5z"/>
<path class="st0" d="M29.9,40.1h3.8L39.4,60h-3.8L29.9,40.1z"/>
<path class="st0" d="M29.9,40.1h-3.8L20.3,60h3.8L29.9,40.1z"/>
</svg>
